:FULLY-SPECIFIED
:FORCE-ALL-JOINTS-BE-3DOF
:DEGREES
1223
root -0.911218 14.8389 -16.8945 370.858 17.5578 361.147
lfemur 5.75672 -2.33534 -7.06667
ltibia 56.3191 0 0
lfoot 10.3034 4.30859 0
ltoes -34.2831 0 0
rfemur -57.3953 -9.88793 23.304
rtibia 76.5211 0 0
rfoot -20.5048 -20.8472 0
rtoes -1.84174 0 0
lowerback 12.5464 1.27413 -3.29475
upperback -3.62327 1.14306 -0.305695
thorax -11.1014 0.744735 1.25686
lowerneck -1.03561 -8.7121 -10.0114
upperneck 0.18978 -11.6645 10.7784
head 1.45711 -5.79042 4.50572
lclavicle -2.15842e-14 -1.93938e-14 0
lhumerus -63.0561 -32.4175 119.621
lradius 87.7342 0 0
lwrist 11.3767 0 0
lhand -26.5989 24.8104 0
lfingers 7.12502 0 0
lthumb -0.0328433 73.0783 0
rclavicle -2.15842e-14 -1.93938e-14 0
rhumerus 68.8115 3.28497 -23.1671
rradius 94.1002 0 0
rwrist -11.2567 0 0
rhand -31.6624 -35.4847 0
rfingers 7.12502 0 0
rthumb -4.91985 -65.4878 0
1224
root -0.919896 14.8483 -16.7498 370.991 17.0912 360.96
lfemur 5.1532 -2.29202 -7.18068
ltibia 56.6558 0 0
lfoot 10.9167 3.8275 0
ltoes -34.121 0 0
rfemur -56.9795 -9.59762 23.6605
rtibia 76.3654 0 0
rfoot -20.6434 -21.408 0
rtoes -2.00989 0 0
lowerback 12.4608 1.23973 -3.09146
upperback -3.67337 1.13616 -0.257605
thorax -11.0968 0.732272 1.19971
lowerneck -1.09709 -8.58987 -9.91192
upperneck 0.17787 -11.4916 10.7159
head 1.43514 -5.70305 4.48268
lclavicle -2.33392e-14 -1.93593e-14 0
lhumerus -62.0371 -32.72 119.627
lradius 87.396 0 0
lwrist 10.4648 0 0
lhand -26.8339 24.5428 0
lfingers 7.12502 0 0
lthumb -0.259878 70.5758 0
rclavicle -2.33392e-14 -1.93593e-14 0
rhumerus 68.3101 3.79731 -23.5519
rradius 94.1578 0 0
rwrist -11.8952 0 0
rhand -31.3115 -35.4877 0
rfingers 7.12502 0 0
rthumb -4.58141 -65.4883 0
1225
root -0.927839 14.8575 -16.6012 371.112 16.6257 360.773
lfemur 4.51131 -2.22172 -7.30953
ltibia 56.9485 0 0
lfoot 11.4892 3.39361 0
ltoes -33.9021 0 0
rfemur -56.5113 -9.32035 24.0027
rtibia 76.1759 0 0
rfoot -20.7699 -21.9381 0
rtoes -2.20808 0 0
lowerback 12.372 1.21071 -2.89498
upperback -3.72188 1.13491 -0.209249
thorax -11.0891 0.722929 1.14573
lowerneck -1.15945 -8.46922 -9.81416
upperneck 0.1771 -11.3218 10.6537
head 1.4175 -5.61711 4.45945
lclavicle -2.49679e-14 -1.9324e-14 0
lhumerus -60.9433 -32.9954 119.567
lradius 87.0903 0 0
lwrist 9.66871 0 0
lhand -27.0612 24.3345 0
lfingers 7.12502 0 0
lthumb -0.479391 67.8239 0
rclavicle -2.49679e-14 -1.9324e-14 0
rhumerus 67.7299 4.31923 -23.9944
rradius 94.2012 0 0
rwrist -12.5228 0 0
rhand -30.9489 -35.4766 0
rfingers 7.12502 0 0
rthumb -4.23163 -65.473 0
1226
root -0.935012 14.8665 -16.4484 371.221 16.1618 360.586
lfemur 3.82996 -2.12321 -7.45373
ltibia 57.1946 0 0
lfoot 12.0188 3.00951 0
ltoes -33.6238 0 0
rfemur -55.9888 -9.05712 24.3298
rtibia 75.9514 0 0
rfoot -20.884 -22.4357 0
rtoes -2.43767 0 0
lowerback 12.2797 1.18736 -2.70581
upperback -3.76869 1.13963 -0.160688
thorax -11.0782 0.716876 1.09507
lowerneck -1.22264 -8.35035 -9.71832
upperneck 0.187913 -11.1553 10.592
head 1.4044 -5.53275 4.43604
lclavicle -2.6461e-14 -1.92882e-14 0
lhumerus -59.7719 -33.2421 119.438
lradius 86.8192 0 0
lwrist 8.99472 0 0
lhand -27.2804 24.189 0
lfingers 7.12502 0 0
lthumb -0.691047 64.8136 0
rclavicle -2.6461e-14 -1.92882e-14 0
rhumerus 67.0676 4.85073 -24.4966
rradius 94.2295 0 0
rwrist -13.1386 0 0
rhand -30.5742 -35.4504 0
rfingers 7.12502 0 0
rthumb -3.87025 -65.4411 0
